<svg width="451" height="151" viewBox="0 0 451 151" fill="none" xmlns="http://www.w3.org/2000/svg">
<path d="M137.015 119C136.094 115.987 135.048 112.889 133.876 109.708C132.788 106.528 131.7 103.347 130.611 100.166H96.71C95.6218 103.347 94.4917 106.528 93.3198 109.708C92.2316 112.889 91.2271 115.987 90.3063 119H69.9655C73.23 109.625 76.3272 100.961 79.257 93.0089C82.1867 85.0567 85.0328 77.5649 87.7951 70.5335C90.6412 63.502 93.4035 56.8473 96.0821 50.5693C98.8445 44.2075 101.691 38.0132 104.62 31.9862H123.329C126.175 38.0132 128.979 44.2075 131.741 50.5693C134.504 56.8473 137.266 63.502 140.028 70.5335C142.875 77.5649 145.762 85.0567 148.692 93.0089C151.622 100.961 154.719 109.625 157.984 119H137.015ZM113.535 51.6993C113.117 52.9549 112.489 54.6709 111.652 56.8473C110.815 59.0237 109.852 61.5349 108.764 64.381C107.676 67.227 106.462 70.366 105.123 73.798C103.867 77.23 102.569 80.8295 101.23 84.5963H125.966C124.626 80.8295 123.329 77.23 122.073 73.798C120.818 70.366 119.604 67.227 118.432 64.381C117.344 61.5349 116.381 59.0237 115.544 56.8473C114.707 54.6709 114.037 52.9549 113.535 51.6993ZM204.278 83.9685C204.278 77.9416 203.483 73.6725 201.893 71.1613C200.386 68.65 197.749 67.3944 193.982 67.3944C192.811 67.3944 191.597 67.4781 190.341 67.6456C189.086 67.7293 187.872 67.8548 186.7 68.0222V119H167.991V55.215C169.582 54.7965 171.423 54.378 173.516 53.9594C175.692 53.4572 177.952 53.0386 180.296 52.7038C182.724 52.2853 185.193 51.9923 187.704 51.8249C190.216 51.5738 192.685 51.4482 195.112 51.4482C199.884 51.4482 203.734 52.076 206.664 53.3316C209.678 54.5035 212.147 55.9265 214.072 57.6007C216.751 55.6754 219.806 54.1687 223.238 53.0805C226.754 51.9923 229.977 51.4482 232.906 51.4482C238.18 51.4482 242.491 52.2016 245.839 53.7083C249.271 55.1313 251.992 57.1821 254.001 59.8608C256.01 62.5394 257.391 65.7203 258.144 69.4034C258.897 73.0865 259.274 77.1882 259.274 81.7084V119H240.566V83.9685C240.566 77.9416 239.77 73.6725 238.18 71.1613C236.673 68.65 234.036 67.3944 230.27 67.3944C229.265 67.3944 227.842 67.6456 226 68.1478C224.243 68.65 222.778 69.2779 221.606 70.0312C222.192 71.9565 222.568 74.0073 222.736 76.1837C222.903 78.2764 222.987 80.5365 222.987 82.964V119H204.278V83.9685ZM301.501 105.942C303.342 105.942 305.1 105.9 306.774 105.816C308.449 105.732 309.788 105.607 310.792 105.439V91.251C310.039 91.0836 308.909 90.9162 307.402 90.7488C305.896 90.5814 304.514 90.4977 303.259 90.4977C301.501 90.4977 299.827 90.6232 298.236 90.8743C296.73 91.0418 295.39 91.4184 294.218 92.0044C293.046 92.5903 292.126 93.3856 291.456 94.39C290.786 95.3945 290.452 96.6501 290.452 98.1569C290.452 101.087 291.414 103.137 293.339 104.309C295.348 105.398 298.069 105.942 301.501 105.942ZM299.994 51.1971C305.519 51.1971 310.123 51.8249 313.806 53.0805C317.489 54.3361 320.419 56.1358 322.595 58.4796C324.855 60.8234 326.446 63.6695 327.366 67.0178C328.287 70.366 328.748 74.091 328.748 78.1927V117.117C326.069 117.703 322.344 118.372 317.573 119.126C312.801 119.963 307.026 120.381 300.245 120.381C295.976 120.381 292.084 120.004 288.568 119.251C285.136 118.498 282.164 117.284 279.653 115.61C277.142 113.852 275.217 111.592 273.877 108.83C272.538 106.067 271.868 102.677 271.868 98.6591C271.868 94.8086 272.622 91.544 274.129 88.8654C275.719 86.1867 277.812 84.0522 280.407 82.4618C283.002 80.8713 285.973 79.7413 289.321 79.0716C292.67 78.3182 296.144 77.9416 299.743 77.9416C302.171 77.9416 304.305 78.0671 306.147 78.3182C308.072 78.4857 309.62 78.7368 310.792 79.0716V77.3138C310.792 74.1329 309.83 71.5798 307.904 69.6545C305.979 67.7293 302.631 66.7666 297.86 66.7666C294.679 66.7666 291.54 67.0178 288.443 67.52C285.345 67.9385 282.667 68.5663 280.407 69.4034L278.021 54.3361C279.109 54.0013 280.448 53.6664 282.039 53.3316C283.713 52.9131 285.513 52.5782 287.438 52.3271C289.363 51.9923 291.372 51.7412 293.465 51.5738C295.641 51.3226 297.818 51.1971 299.994 51.1971ZM361.611 85.4752C361.611 91.251 362.909 95.8968 365.504 99.4125C368.099 102.928 371.949 104.686 377.055 104.686C378.729 104.686 380.278 104.644 381.701 104.56C383.124 104.393 384.296 104.226 385.217 104.058V70.0312C384.045 69.2779 382.496 68.65 380.571 68.1478C378.729 67.6456 376.846 67.3944 374.921 67.3944C366.048 67.3944 361.611 73.4214 361.611 85.4752ZM403.925 116.865C402.251 117.368 400.326 117.87 398.149 118.372C395.973 118.791 393.671 119.167 391.244 119.502C388.9 119.837 386.472 120.088 383.961 120.256C381.534 120.507 379.19 120.632 376.93 120.632C371.489 120.632 366.634 119.837 362.365 118.247C358.096 116.656 354.496 114.396 351.566 111.466C348.637 108.453 346.377 104.853 344.786 100.668C343.279 96.399 342.526 91.6277 342.526 86.3541C342.526 80.9969 343.196 76.1837 344.535 71.9146C345.874 67.5619 347.8 63.8787 350.311 60.8653C352.822 57.8518 355.877 55.5499 359.477 53.9594C363.16 52.369 367.345 51.5738 372.033 51.5738C374.628 51.5738 376.93 51.8249 378.939 52.3271C381.031 52.8294 383.124 53.5409 385.217 54.4617V24.5781L403.925 21.5647V116.865ZM440.152 119H421.443V52.9549H440.152V119ZM441.909 33.8697C441.909 37.3017 440.779 40.0221 438.519 42.0311C436.343 43.9564 433.748 44.919 430.735 44.919C427.721 44.919 425.084 43.9564 422.824 42.0311C420.648 40.0221 419.56 37.3017 419.56 33.8697C419.56 30.4377 420.648 27.759 422.824 25.8338C425.084 23.8248 427.721 22.8203 430.735 22.8203C433.748 22.8203 436.343 23.8248 438.519 25.8338C440.779 27.759 441.909 30.4377 441.909 33.8697Z" fill="white"/>
<path d="M67 73.6063H39.1849L64.9698 33H32.4849L2.03018 93.9094H25.9878L2.03018 150.758L67 73.6063Z" fill="#FFDD09"/>
<path d="M56.8487 73.6063L8.12117 131.47L0 150.758L64.9698 73.6063H56.8487Z" fill="#FD9808"/>
</svg>
